<svg xmlns="http://www.w3.org/2000/svg" xmlns:xlink="http://www.w3.org/1999/xlink" viewBox="0,0,256,256" width="64px" height="64px" fill-rule="nonzero"><g fill="#f1620b" fill-rule="nonzero" stroke="none" stroke-width="1" stroke-linecap="butt" stroke-linejoin="miter" stroke-miterlimit="10" stroke-dasharray="" stroke-dashoffset="0" font-family="none" font-weight="none" font-size="none" text-anchor="none" style="mix-blend-mode: normal"><g transform="scale(4,4)"><path d="M41.84961,0c0.006,0.002 0.00962,0.00486 0.01563,0.00586zM32,3c-5.531,0 -10.54687,2.15344 -14.29687,5.64844l7.8457,6.53906l9.79688,-11.89453c-1.093,-0.176 -2.2047,-0.29297 -3.3457,-0.29297zM39.58594,4.43555l-9.78125,11.87695c0.699,-0.2 1.43331,-0.3125 2.19531,-0.3125c4.418,0 8,3.582 8,8c0,0.099 -0.01163,0.19692 -0.01562,0.29492l9.68359,-11.61914c-2.387,-3.716 -5.90903,-6.62123 -10.08203,-8.24023zM17,7.21094v0.02148l0.00781,-0.00977zM15.04688,11.64258c-2.534,3.469 -4.04687,7.73142 -4.04687,12.35742c0,2.711 0.45937,5.12447 1.23438,7.35547l10.77148,-13.08008zM51.62305,16.57422l-27.35547,32.82813c2.349,3.299 4.50141,6.94805 5.94141,11.37305c0.565,1.735 3.01508,1.735 3.58008,0c5.118,-15.717 19.21094,-21.66539 19.21094,-36.77539c0,-2.618 -0.50195,-5.11478 -1.37695,-7.42578zM24.0332,23.31836l-9.96484,12.10352c2.063,3.728 4.91038,7.06941 7.73438,10.69141l11.91992,-14.30273c-0.556,0.121 -1.13066,0.18945 -1.72266,0.18945c-4.418,0 -8,-3.582 -8,-8c0,-0.23 0.0142,-0.45664 0.0332,-0.68164z"></path></g></g></svg>